<svg width="33" height="33" viewBox="0 0 33 33" fill="none" xmlns="http://www.w3.org/2000/svg">
<path d="M9.25703 13.0045C8.11224 13.0045 7.18736 14.0483 7.18736 15.2907C7.18736 16.6581 8.11224 17.7093 9.25703 17.7093C10.4018 17.7093 11.2685 16.6617 11.2685 15.3569C11.2685 14.052 10.4083 13.0045 9.25703 13.0045ZM16.5009 12.9383C15.3528 12.9383 14.4894 13.9859 14.4894 15.2907C14.4894 16.5956 15.4111 17.577 16.5009 17.577C17.5907 17.577 18.5123 16.5294 18.5123 15.2907C18.5123 14.052 17.6521 12.9383 16.5009 12.9383ZM23.7447 13.0045C22.5967 13.0045 21.7332 14.052 21.7332 15.3569C21.7332 16.6617 22.6549 17.7093 23.7447 17.7093C24.8927 17.7093 25.8137 16.6617 25.8137 15.3569C25.8144 14.0483 24.896 13.0045 23.7447 13.0045ZM16.5009 0C7.35552 0 0.00172838 6.84553 0.00172838 15.2907C0.00172838 18.7914 1.28945 21.9988 3.4238 24.5754C2.46205 27.4792 0.457055 29.933 0.424717 29.9602C-0.00370449 30.4748 -0.116825 31.2283 0.12565 31.8716C0.319811 32.5736 0.873576 33 1.49577 33C5.47277 33 8.55205 31.107 10.4924 29.6C12.3596 30.2616 14.3833 30.6476 16.5009 30.6476C25.6462 30.6476 33 23.8013 33 15.423C33 7.04475 25.6462 0 16.5009 0ZM16.5009 27.119C14.7708 27.119 13.0652 26.8157 11.4328 26.228L9.96136 25.7042L8.7008 26.7146C7.77915 27.4586 6.51019 28.2863 4.98251 28.8465C5.45944 27.9555 5.91192 26.9536 6.26765 25.8876L6.95452 23.8292L5.62088 22.2215C4.45863 20.8042 3.0519 18.4591 3.0519 15.3569C3.0519 8.86935 9.0824 3.59479 16.4465 3.59479C23.8107 3.59479 29.8412 8.86935 29.8412 15.3569C29.8412 21.8444 23.9258 27.119 16.5009 27.119Z" fill="#1AB4EB"/>
</svg>
