<svg width="20" height="23" viewBox="0 0 20 23" fill="none" xmlns="http://www.w3.org/2000/svg">
<path fill-rule="evenodd" clip-rule="evenodd" d="M17.2502 0.25C17.8179 0.24982 18.3646 0.464207 18.7808 0.850184C19.1971 1.23616 19.452 1.7652 19.4946 2.33125L19.5002 2.5V20.5C19.5004 21.0676 19.286 21.6144 18.9 22.0306C18.5141 22.4468 17.985 22.7018 17.419 22.7444L17.2502 22.75H3.75022C3.18257 22.7502 2.63583 22.5358 2.2196 22.1498C1.80337 21.7638 1.54842 21.2348 1.50584 20.6687L1.50022 20.5V19.375C1.21348 19.3747 0.937682 19.2649 0.729179 19.068C0.520676 18.8712 0.395204 18.6022 0.3784 18.3159C0.361596 18.0297 0.454727 17.7478 0.638766 17.5279C0.822806 17.3081 1.08386 17.1667 1.36859 17.1329L1.50022 17.125V14.875C1.21348 14.8747 0.937682 14.7649 0.729179 14.568C0.520676 14.3712 0.395204 14.1022 0.3784 13.8159C0.361596 13.5297 0.454727 13.2478 0.638766 13.0279C0.822806 12.8081 1.08386 12.6667 1.36859 12.6329L1.50022 12.625V10.375C1.21348 10.3747 0.937682 10.2649 0.729179 10.068C0.520676 9.87121 0.395204 9.60218 0.3784 9.31593C0.361596 9.02968 0.454727 8.74782 0.638766 8.52794C0.822806 8.30805 1.08386 8.16674 1.36859 8.13287L1.50022 8.125V5.875C1.21348 5.87468 0.937682 5.76489 0.729179 5.56805C0.520676 5.37121 0.395204 5.10218 0.3784 4.81593C0.361596 4.52968 0.454727 4.24782 0.638766 4.02794C0.822806 3.80805 1.08386 3.66674 1.36859 3.63287L1.50022 3.625V2.5C1.50004 1.93235 1.71443 1.38561 2.1004 0.969384C2.48638 0.553155 3.01542 0.298199 3.58147 0.255625L3.75022 0.25H17.2502ZM17.2502 2.5H3.75022V20.5H17.2502V2.5ZM14.4377 4.75C14.8572 4.75002 15.2617 4.90628 15.5722 5.18832C15.8827 5.47036 16.0771 5.85794 16.1173 6.2755L16.1252 6.4375V8.6875C16.1252 9.10699 15.9689 9.51144 15.6869 9.82197C15.4049 10.1325 15.0173 10.3269 14.5997 10.3671L14.4377 10.375H6.56272C6.14323 10.375 5.73878 10.2187 5.42825 9.93668C5.11772 9.65464 4.92336 9.26706 4.88309 8.8495L4.87522 8.6875V6.4375C4.87524 6.01801 5.0315 5.61356 5.31354 5.30303C5.59558 4.9925 5.98316 4.79815 6.40072 4.75787L6.56272 4.75H14.4377ZM13.8752 7H7.12522V8.125H13.8752V7Z" fill="black"/>
</svg>
