<svg width="32" height="32" viewBox="0 0 32 32" fill="none" xmlns="http://www.w3.org/2000/svg">
<path d="M5.33341 8H2.66675V26.6667C2.66675 28.1333 3.86675 29.3333 5.33341 29.3333H24.0001V26.6667H5.33341V8ZM26.6667 2.66667H10.6667C9.20008 2.66667 8.00008 3.86667 8.00008 5.33334V21.3333C8.00008 22.8 9.20008 24 10.6667 24H26.6667C28.1334 24 29.3334 22.8 29.3334 21.3333V5.33334C29.3334 3.86667 28.1334 2.66667 26.6667 2.66667ZM26.6667 21.3333H10.6667V5.33334H26.6667V21.3333ZM17.3334 18.6667H20.0001V14.6667H24.0001V12H20.0001V8H17.3334V12H13.3334V14.6667H17.3334V18.6667Z" fill="#1AB4EB"/>
</svg>
