<svg width="32" height="32" viewBox="0 0 32 32" fill="none" xmlns="http://www.w3.org/2000/svg">
<path d="M26.6667 10.6667H19.1841L20.6814 6.17733C20.9507 5.36666 20.8147 4.468 20.3147 3.77466C19.8147 3.08133 19.0041 2.66666 18.1494 2.66666H16.0001C15.6041 2.66666 15.2294 2.84266 14.9747 3.14666L8.70808 10.6667H5.33341C3.86275 10.6667 2.66675 11.8627 2.66675 13.3333V25.3333C2.66675 26.804 3.86275 28 5.33341 28H23.0761C23.6186 27.9982 24.1478 27.8318 24.5937 27.5228C25.0396 27.2137 25.3812 26.7767 25.5734 26.2693L29.2494 16.468C29.3052 16.3183 29.3337 16.1598 29.3334 16V13.3333C29.3334 11.8627 28.1374 10.6667 26.6667 10.6667ZM5.33341 13.3333H8.00008V25.3333H5.33341V13.3333ZM26.6667 15.7587L23.0761 25.3333H10.6667V12.4827L16.6241 5.33333H18.1521L16.0694 11.5773C16.0018 11.7778 15.9829 11.9914 16.0144 12.2006C16.0459 12.4097 16.1267 12.6084 16.2503 12.7801C16.3739 12.9517 16.5366 13.0915 16.7249 13.1877C16.9133 13.2839 17.1219 13.3338 17.3334 13.3333H26.6667V15.7587Z" fill="#1AB4EB"/>
</svg>
