<svg width="20" height="20" viewBox="0 0 20 20" fill="none" xmlns="http://www.w3.org/2000/svg">
<path d="M11.5438 8.45596C10.7247 7.6372 9.61396 7.17725 8.45581 7.17725C7.29766 7.17725 6.18692 7.6372 5.36781 8.45596L2.27881 11.544C1.45969 12.3631 0.999512 13.474 0.999512 14.6325C0.999512 15.7909 1.45969 16.9018 2.27881 17.721C3.09793 18.5401 4.2089 19.0003 5.36731 19.0003C6.52572 19.0003 7.63669 18.5401 8.45581 17.721L9.99981 16.177" stroke="black" stroke-width="2" stroke-linecap="round" stroke-linejoin="round"/>
<path d="M8.45605 11.5441C9.27516 12.3628 10.3859 12.8228 11.5441 12.8228C12.7022 12.8228 13.8129 12.3628 14.6321 11.5441L17.7211 8.45605C18.5402 7.63693 19.0004 6.52597 19.0004 5.36755C19.0004 4.20914 18.5402 3.09818 17.7211 2.27905C16.9019 1.45993 15.791 0.999756 14.6326 0.999756C13.4741 0.999756 12.3632 1.45993 11.5441 2.27905L10.0001 3.82305" stroke="black" stroke-width="2" stroke-linecap="round" stroke-linejoin="round"/>
</svg>
