<svg width="20" height="26" viewBox="0 0 20 26" fill="none" xmlns="http://www.w3.org/2000/svg">
<path d="M5.83336 6.11763C5.83336 5.10357 6.27234 4.13104 7.05375 3.41399C7.83515 2.69694 8.89495 2.29411 10 2.29411C11.1051 2.29411 12.1649 2.69694 12.9463 3.41399C13.7277 4.13104 14.1667 5.10357 14.1667 6.11763C14.1667 7.1317 13.7277 8.10423 12.9463 8.82128C12.1649 9.53833 11.1051 9.94116 10 9.94116C8.89495 9.94116 7.83515 9.53833 7.05375 8.82128C6.27234 8.10423 5.83336 7.1317 5.83336 6.11763ZM10 -1.27157e-05C8.23191 -1.27157e-05 6.53622 0.644523 5.28598 1.7918C4.03574 2.93909 3.33336 4.49513 3.33336 6.11763C3.33336 7.74014 4.03574 9.29618 5.28598 10.4435C6.53622 11.5907 8.23191 13 10 13C11.7681 13 13.4638 11.5907 14.7141 10.4435C15.9643 9.29618 16.6667 7.74014 16.6667 6.11763C16.6667 4.49513 15.9643 2.93909 14.7141 1.7918C13.4638 0.644523 11.7681 -1.27157e-05 10 -1.27157e-05ZM3.75002 15.2941C2.75546 15.2941 1.80163 15.6567 1.09837 16.302C0.395111 16.9473 2.31083e-05 17.8226 2.31083e-05 18.7353V19.1605C0.00198188 19.2668 0.0097694 19.373 0.0233563 19.4786C0.160989 20.6166 0.606748 21.705 1.32002 22.6445C2.68336 24.4308 5.28669 26 10 26C14.7134 26 17.3167 24.4323 18.68 22.6429C19.3935 21.7035 19.8393 20.6151 19.9767 19.477C19.9885 19.3718 19.9962 19.2662 20 19.1605V18.7353C20 17.8226 19.6049 16.9473 18.9017 16.302C18.1984 15.6567 17.2446 15.2941 16.25 15.2941H3.75002ZM2.50002 19.1283V18.7353C2.50002 18.4311 2.63172 18.1393 2.86614 17.9242C3.10056 17.7091 3.4185 17.5882 3.75002 17.5882H16.25C16.5815 17.5882 16.8995 17.7091 17.1339 17.9242C17.3683 18.1393 17.5 18.4311 17.5 18.7353V19.1283L17.4884 19.2507C17.3934 19.9971 17.0991 20.7105 16.6317 21.3276C15.81 22.4059 14.0367 23.7059 10 23.7059C5.96336 23.7059 4.19002 22.4059 3.36669 21.3276C2.89985 20.7104 2.60617 19.997 2.51169 19.2507C2.50663 19.21 2.50274 19.1692 2.50002 19.1283Z" fill="black"/>
</svg>
