<svg width="32" height="32" viewBox="0 0 32 32" fill="none" xmlns="http://www.w3.org/2000/svg">
<g clip-path="url(#clip0_75_1411)">
<path fill-rule="evenodd" clip-rule="evenodd" d="M24 2.66667C24.6728 2.66645 25.3207 2.92054 25.8141 3.378C26.3074 3.83545 26.6095 4.46246 26.66 5.13333L26.6667 5.33333V26.6667C26.6669 27.3394 26.4128 27.9874 25.9553 28.4807C25.4979 28.974 24.8709 29.2762 24.2 29.3267L24 29.3333H7.99999C7.32722 29.3335 6.67923 29.0795 6.18592 28.622C5.69262 28.1645 5.39045 27.5375 5.33999 26.8667L5.33332 26.6667V25.3333C4.99348 25.333 4.66661 25.2028 4.4195 24.9695C4.17238 24.7362 4.02367 24.4174 4.00376 24.0781C3.98384 23.7389 4.09422 23.4048 4.31234 23.1442C4.53046 22.8836 4.83986 22.7161 5.17732 22.676L5.33332 22.6667V20C4.99348 19.9996 4.66661 19.8695 4.4195 19.6362C4.17238 19.4029 4.02367 19.0841 4.00376 18.7448C3.98384 18.4055 4.09422 18.0715 4.31234 17.8109C4.53046 17.5503 4.83986 17.3828 5.17732 17.3427L5.33332 17.3333V14.6667C4.99348 14.6663 4.66661 14.5362 4.4195 14.3029C4.17238 14.0696 4.02367 13.7507 4.00376 13.4115C3.98384 13.0722 4.09422 12.7382 4.31234 12.4776C4.53046 12.217 4.83986 12.0495 5.17732 12.0093L5.33332 12V9.33333C4.99348 9.33296 4.66661 9.20283 4.4195 8.96953C4.17238 8.73624 4.02367 8.41739 4.00376 8.07814C3.98384 7.73888 4.09422 7.40483 4.31234 7.14422C4.53046 6.88362 4.83986 6.71614 5.17732 6.676L5.33332 6.66667V5.33333C5.33311 4.66056 5.5872 4.01258 6.04465 3.51927C6.5021 3.02596 7.12911 2.72379 7.79999 2.67333L7.99999 2.66667H24ZM24 5.33333H7.99999V26.6667H24V5.33333ZM20.6667 8C21.1638 8.00002 21.6432 8.18523 22.0112 8.51949C22.3792 8.85376 22.6096 9.31312 22.6573 9.808L22.6667 10V12.6667C22.6666 13.1638 22.4814 13.6432 22.1472 14.0112C21.8129 14.3793 21.3535 14.6096 20.8587 14.6573L20.6667 14.6667H11.3333C10.8361 14.6666 10.3568 14.4814 9.98876 14.1472C9.62073 13.8129 9.39038 13.3535 9.34265 12.8587L9.33332 12.6667V10C9.33334 9.50282 9.51855 9.02348 9.85281 8.65544C10.1871 8.2874 10.6464 8.05706 11.1413 8.00933L11.3333 8H20.6667ZM20 10.6667H12V12H20V10.6667Z" fill="#1AB4EB"/>
</g>
<defs>
<clipPath id="clip0_75_1411">
<rect width="32" height="32" fill="white"/>
</clipPath>
</defs>
</svg>
