<svg width="38" height="38" viewBox="0 0 38 38" fill="none" xmlns="http://www.w3.org/2000/svg">
<path d="M4.75 19C4.75 21.6188 6.88117 23.75 9.5 23.75C10.7572 23.75 11.894 23.2513 12.7442 22.4517L22.23 27.873C22.2015 28.0788 22.1667 28.2847 22.1667 28.5C22.1667 31.1188 24.2978 33.25 26.9167 33.25C29.5355 33.25 31.6667 31.1188 31.6667 28.5C31.6667 25.8812 29.5355 23.75 26.9167 23.75C25.6595 23.75 24.5227 24.2488 23.6724 25.0483L14.1867 19.6286C14.2152 19.4212 14.25 19.2153 14.25 19C14.25 18.7847 14.2152 18.5788 14.1867 18.3714L23.6724 12.9517C24.5227 13.7513 25.6595 14.25 26.9167 14.25C29.5355 14.25 31.6667 12.1188 31.6667 9.5C31.6667 6.88117 29.5355 4.75 26.9167 4.75C24.2978 4.75 22.1667 6.88117 22.1667 9.5C22.1667 9.71533 22.2015 9.92117 22.23 10.1286L12.7442 15.5483C11.8687 14.7166 10.7077 14.2519 9.5 14.25C6.88117 14.25 4.75 16.3812 4.75 19Z" fill="#1AB4EB"/>
</svg>
