<svg width="32" height="32" viewBox="0 0 32 32" fill="none" xmlns="http://www.w3.org/2000/svg">
<g clip-path="url(#clip0_25_1091)">
<path d="M13 15V23L20 19L13 15Z" fill="#1AB4EB"/>
<path d="M26 28H6C5.46973 27.9995 4.96133 27.7886 4.58637 27.4136C4.21141 27.0387 4.00053 26.5303 4 26V12C4.00053 11.4697 4.21141 10.9613 4.58637 10.5864C4.96133 10.2114 5.46973 10.0005 6 10H26C26.5303 10.0005 27.0387 10.2114 27.4136 10.5864C27.7886 10.9613 27.9995 11.4697 28 12V26C27.9995 26.5303 27.7886 27.0387 27.4136 27.4136C27.0387 27.7886 26.5303 27.9995 26 28ZM6 12V26H26V12H6ZM6 6H26V8H6V6ZM8 2H24V4H8V2Z" fill="#1AB4EB"/>
</g>
<defs>
<clipPath id="clip0_25_1091">
<rect width="32" height="32" fill="white"/>
</clipPath>
</defs>
</svg>
