<svg width="31" height="39" viewBox="0 0 31 39" fill="none" xmlns="http://www.w3.org/2000/svg">
<path d="M9.0417 9.17645C9.0417 7.65536 9.72213 6.19656 10.9333 5.12099C12.1445 4.04541 13.7872 3.44116 15.5 3.44116C17.2129 3.44116 18.8556 4.04541 20.0668 5.12099C21.2779 6.19656 21.9584 7.65536 21.9584 9.17645C21.9584 10.6975 21.2779 12.1563 20.0668 13.2319C18.8556 14.3075 17.2129 14.9117 15.5 14.9117C13.7872 14.9117 12.1445 14.3075 10.9333 13.2319C9.72213 12.1563 9.0417 10.6975 9.0417 9.17645ZM15.5 -1.90735e-05C12.7595 -1.90735e-05 10.1311 0.966784 8.19327 2.68771C6.25539 4.40863 5.1667 6.7427 5.1667 9.17645C5.1667 11.6102 6.25539 13.9443 8.19327 15.6652C10.1311 17.3861 12.7595 19.5 15.5 19.5C18.2406 19.5 20.8689 17.3861 22.8068 15.6652C24.7447 13.9443 25.8334 11.6102 25.8334 9.17645C25.8334 6.7427 24.7447 4.40863 22.8068 2.68771C20.8689 0.966784 18.2406 -1.90735e-05 15.5 -1.90735e-05ZM5.81254 22.9412C4.27097 22.9412 2.79253 23.485 1.70248 24.453C0.612422 25.421 3.58178e-05 26.7339 3.58178e-05 28.1029V28.7407C0.00307192 28.9002 0.0151426 29.0594 0.0362023 29.2179C0.249533 30.9249 0.94046 32.5574 2.04604 33.9667C4.1592 36.6462 8.19437 39 15.5 39C22.8057 39 26.8409 36.6485 28.954 33.9644C30.0599 32.5553 30.7509 30.9227 30.9639 29.2156C30.9821 29.0577 30.9942 28.8993 31 28.7407V28.1029C31 26.7339 30.3876 25.421 29.2976 24.453C28.2075 23.485 26.7291 22.9412 25.1875 22.9412H5.81254ZM3.87504 28.6925V28.1029C3.87504 27.6466 4.07916 27.209 4.44252 26.8863C4.80587 26.5636 5.29868 26.3823 5.81254 26.3823H25.1875C25.7014 26.3823 26.1942 26.5636 26.5576 26.8863C26.9209 27.209 27.125 27.6466 27.125 28.1029V28.6925L27.107 28.876C26.9597 29.9957 26.5036 31.0658 25.7791 31.9915C24.5055 33.6088 21.7569 35.5588 15.5 35.5588C9.2432 35.5588 6.49454 33.6088 5.21837 31.9915C4.49476 31.0656 4.03956 29.9955 3.89312 28.876C3.88528 28.815 3.87925 28.7538 3.87504 28.6925Z" fill="#1AB4EB"/>
</svg>
