<svg width="611" height="524" viewBox="0 0 611 524" fill="none" xmlns="http://www.w3.org/2000/svg">
<g clip-path="url(#clip0_18_518)">
<path d="M419.989 161.969C419.968 173.809 416.401 185.376 409.739 195.209C403.077 205.041 393.62 212.698 382.563 217.209C371.506 221.72 359.346 222.885 347.62 220.554C335.895 218.224 325.131 212.504 316.689 204.117C308.248 195.73 302.508 185.054 300.196 173.437C297.883 161.821 299.102 149.787 303.699 138.857C308.295 127.926 316.062 118.591 326.017 112.03C335.973 105.47 347.67 101.98 359.629 102.001C367.576 101.994 375.445 103.542 382.785 106.556C390.125 109.57 396.791 113.991 402.4 119.563C408.01 125.136 412.451 131.751 415.469 139.029C418.488 146.306 420.024 154.102 419.989 161.969Z" fill="#F2F2F2"/>
<path d="M520.625 196.864L529.128 180.792C521.503 171.678 496.489 160.624 496.489 160.624L462.634 130.117C462.274 128.756 461.557 127.513 460.557 126.513C459.557 125.513 458.309 124.792 456.937 124.421C455.566 124.051 454.121 124.045 452.746 124.403C451.372 124.762 450.117 125.472 449.108 126.464C448.1 127.455 447.372 128.692 447 130.05C446.628 131.408 446.623 132.839 446.987 134.199C447.351 135.559 448.07 136.8 449.072 137.798C450.075 138.795 451.325 139.514 452.697 139.881L489.272 183.308L520.625 196.864Z" fill="#9E616A"/>
<path d="M516.507 195.755L528.512 199.539C537.242 202.291 546.649 202.084 555.247 198.95C557.847 197.991 560.125 196.332 561.823 194.159C563.521 191.986 564.572 189.386 564.855 186.653C565.215 182.946 564.139 179.241 561.845 176.289C559.552 173.337 556.211 171.358 552.5 170.751C541.241 168.919 526.735 168.016 521.56 174.113L521.508 174.175L516.507 195.755Z" fill="#3F3D56"/>
<path d="M430.157 244.957C463.552 244.957 490.624 218.155 490.624 185.094C490.624 152.033 463.552 125.232 430.157 125.232C396.762 125.232 369.69 152.033 369.69 185.094C369.69 218.155 396.762 244.957 430.157 244.957Z" fill="white"/>
<path d="M405.48 161.68C404.65 166.094 403.289 170.394 401.426 174.488C390.76 196.827 421.136 189.545 431.991 189.545C443.86 189.545 455.216 195.724 453.481 168.27C452.741 156.543 443.86 146.994 431.991 146.994C421.853 146.994 407.599 151.455 405.48 161.68Z" fill="#2F2E41"/>
<path d="M430.213 189.54C439.858 189.54 447.676 181.8 447.676 172.251C447.676 162.703 439.858 154.963 430.213 154.963C420.568 154.963 412.75 162.703 412.75 172.251C412.75 181.8 420.568 189.54 430.213 189.54Z" fill="#FFB6B6"/>
<path d="M418.353 154.628C421.413 152.781 424.919 151.782 428.502 151.735C432.086 151.688 435.616 152.596 438.725 154.362C441.833 156.128 444.405 158.689 446.171 161.776C447.938 164.863 448.834 168.364 448.766 171.911C439.868 174.123 430.519 175.816 421.03 172.44L418.789 167.01L417.467 172.444C414.577 173.614 411.68 174.603 408.783 172.433C408.664 168.896 409.486 165.389 411.166 162.265C412.845 159.14 415.324 156.507 418.353 154.628Z" fill="#2F2E41"/>
<path d="M477.173 224.899C466.698 236.7 451.954 243.949 436.127 245.081C420.299 246.213 404.657 241.139 392.576 230.952L397.762 216.625C398.934 214.08 400.784 211.899 403.112 210.316C405.441 208.733 408.161 207.807 410.981 207.638L414.281 207.438L422.148 200.72C422.148 200.72 443.347 199.971 443.033 199.612L455.873 207.258L455.863 207.205L460.91 207.511C463.73 207.68 466.451 208.605 468.78 210.189C471.109 211.772 472.958 213.953 474.13 216.498L477.173 224.899Z" fill="#F9A826"/>
<path d="M424.852 471.567L423.349 450.878C413.507 446.008 402.613 443.589 391.612 443.833C407.089 455.676 405.849 479.346 416.567 495.545C419.949 500.572 424.431 504.781 429.679 507.86C434.928 510.94 440.809 512.81 446.887 513.334L459.767 520.669C461.24 511.029 460.585 501.186 457.846 491.821C455.108 482.455 450.35 473.788 443.902 466.418C440.244 462.318 436.078 458.692 431.504 455.623C428.689 463.625 424.852 471.567 424.852 471.567Z" fill="#F2F2F2"/>
<path d="M33.2396 104.869L31.7372 84.1804C21.895 79.3097 11.0006 76.891 0 77.1345C15.4764 88.9775 14.2368 112.648 24.955 128.847C28.337 133.874 32.8183 138.083 38.0669 141.162C43.3154 144.242 49.1966 146.112 55.2747 146.636L68.1548 153.971C69.6282 144.331 68.9729 134.488 66.2341 125.123C63.4953 115.757 58.738 107.09 52.2902 99.7197C48.6316 95.6204 44.4661 91.9935 39.892 88.9247C37.0767 96.9269 33.2396 104.869 33.2396 104.869Z" fill="#F2F2F2"/>
<path d="M481.197 513.675L471.15 513.674L466.37 475.31H481.198L481.197 513.675Z" fill="#9E616A"/>
<path d="M483.759 523.316L451.364 523.315V522.909C451.364 519.599 452.693 516.424 455.057 514.083C457.422 511.742 460.629 510.427 463.973 510.427H463.974L469.891 505.982L480.932 510.427L483.76 510.428L483.759 523.316Z" fill="#2F2E41"/>
<path d="M569.743 513.675L559.697 513.674L554.917 475.31H569.745L569.743 513.675Z" fill="#9E616A"/>
<path d="M572.306 523.316L539.91 523.315V522.909C539.911 519.599 541.239 516.424 543.604 514.083C545.968 511.742 549.175 510.427 552.519 510.427H552.52L558.438 505.982L569.478 510.427L572.306 510.428L572.306 523.316Z" fill="#2F2E41"/>
<path d="M554.463 308.346L562.913 387.82C562.913 387.82 574.162 467.396 572.049 478.376C569.937 489.356 572.578 490.925 572.578 490.925L553.301 489.566C553.301 489.566 553.83 482.769 550.661 479.631C547.492 476.494 549.076 467.083 549.076 467.083L511.683 337.626L488.973 405.597C488.973 405.597 485.276 480.366 484.748 481.411C484.22 482.457 482.636 496.574 482.636 496.574H463.094C463.094 496.574 465.735 488.208 462.038 485.594C458.341 482.98 455.172 485.071 458.341 480.365C461.51 475.66 462.566 469.908 461.51 467.294C460.454 464.68 460.454 454.223 460.454 454.223C460.454 454.223 462.038 313.051 471.017 308.346C479.995 303.64 554.463 308.346 554.463 308.346Z" fill="#2F2E41"/>
<path d="M514.444 147.43C525.923 147.43 535.228 138.218 535.228 126.854C535.228 115.491 525.923 106.278 514.444 106.278C502.965 106.278 493.66 115.491 493.66 126.854C493.66 138.218 502.965 147.43 514.444 147.43Z" fill="#9E616A"/>
<path d="M561.646 317.008C521.395 325.237 468.054 311.089 468.054 311.089L482.283 250.025L477.224 186.121C476.607 178.306 481.103 170.981 488.097 168.385L497.755 164.804L505.738 153.49L528.54 154.23L537.656 166.109L544.849 169.887L560.444 178.075L560.513 178.109V178.143L555.619 225.14L552.667 253.477C552.667 253.477 561.632 285.348 559.792 289.575C557.953 293.794 559.552 291.756 559.998 294.012C560.444 296.268 561.81 296.411 562.016 300.855C562.229 305.292 561.646 317.008 561.646 317.008Z" fill="#3F3D56"/>
<path d="M610.304 524H299.384C299.199 523.999 299.023 523.926 298.893 523.797C298.762 523.668 298.689 523.493 298.689 523.311C298.689 523.128 298.762 522.953 298.893 522.824C299.023 522.695 299.199 522.622 299.384 522.621H610.304C610.488 522.621 610.665 522.694 610.796 522.823C610.927 522.952 611 523.128 611 523.311C611 523.493 610.927 523.669 610.796 523.798C610.665 523.927 610.488 524 610.304 524Z" fill="#CCCCCC"/>
<path d="M513.433 146.442C517.078 146.405 520.714 146.06 524.3 145.41C527.85 144.601 535.683 138.605 537.817 135.062C539.403 132.43 540.355 128.36 540.875 125.408C541.576 121.502 541.441 117.494 540.478 113.643C539.515 109.792 537.746 106.184 535.285 103.053C534.336 101.741 533.047 100.708 531.554 100.062C531.422 100.014 531.286 99.9729 531.149 99.938C528.985 99.4329 527.022 98.2989 525.514 96.6816C525.221 96.3542 524.904 96.0481 524.567 95.7656C522.874 94.4241 520.885 93.4981 518.762 93.0633C515.332 92.2478 510.425 93.2698 504.178 96.1035C501.04 97.5272 497.556 97.13 494.872 96.6249C494.721 96.6001 494.567 96.6147 494.424 96.6674C494.281 96.72 494.154 96.8088 494.056 96.9249C492.948 98.0097 491.466 98.6389 489.908 98.6861C488.955 98.752 487.988 100.086 486.822 101.822C486.558 102.217 486.249 102.677 486.025 102.958L485.98 102.43L485.456 103.033C484.631 103.981 484.063 105.119 483.803 106.343C483.542 107.567 483.599 108.836 483.968 110.032C484.337 111.228 485.005 112.313 485.911 113.184C486.817 114.056 487.931 114.686 489.149 115.017C490.116 115.245 491.103 115.375 492.096 115.405C492.699 115.443 493.321 115.483 493.92 115.57C495.841 115.908 497.641 116.734 499.143 117.967C500.646 119.2 501.8 120.798 502.493 122.604C502.656 123.021 502.915 123.396 503.248 123.699C503.581 124.002 503.98 124.225 504.414 124.351C504.848 124.477 505.305 124.502 505.751 124.426C506.196 124.349 506.618 124.172 506.983 123.908C507.591 123.414 508.311 123.073 509.081 122.914C509.851 122.754 510.648 122.782 511.405 122.994C512.063 123.334 512.583 123.889 512.877 124.564C513.233 125.315 513.807 125.944 514.526 126.371C516.976 127.544 517.286 133.008 516.536 137.589C515.813 142.004 514.241 145.226 512.713 145.422C511.536 145.573 511.403 145.659 511.323 145.868L511.252 146.055L511.389 146.224C512.047 146.442 512.744 146.516 513.433 146.442Z" fill="#2F2E41"/>
<path d="M430.157 245.707C418.048 245.707 406.211 242.152 396.143 235.492C386.074 228.831 378.227 219.365 373.593 208.29C368.959 197.214 367.747 185.027 370.109 173.27C372.471 161.512 378.302 150.712 386.865 142.235C395.427 133.758 406.336 127.986 418.213 125.647C430.089 123.308 442.4 124.509 453.587 129.096C464.774 133.684 474.336 141.453 481.064 151.42C487.791 161.388 491.382 173.107 491.382 185.094C491.363 201.164 484.907 216.571 473.429 227.934C461.951 239.297 446.389 245.688 430.157 245.707ZM430.157 125.982C418.348 125.982 406.804 129.449 396.984 135.944C387.165 142.44 379.512 151.672 374.993 162.473C370.473 173.275 369.291 185.16 371.595 196.627C373.899 208.093 379.586 218.626 387.936 226.893C396.287 235.16 406.926 240.79 418.508 243.071C430.091 245.352 442.097 244.181 453.007 239.707C463.918 235.233 473.243 227.656 479.804 217.936C486.365 208.215 489.867 196.786 489.867 185.094C489.849 169.422 483.552 154.397 472.358 143.315C461.165 132.233 445.988 126 430.157 125.982Z" fill="#3F3D56"/>
<path d="M218.823 120.474C252.218 120.474 279.29 93.6732 279.29 60.6121C279.29 27.5511 252.218 0.749802 218.823 0.749802C185.428 0.749802 158.355 27.5511 158.355 60.6121C158.355 93.6732 185.428 120.474 218.823 120.474Z" fill="white"/>
<path d="M221.621 66.7184C232.511 66.7184 241.339 57.979 241.339 47.1984C241.339 36.4177 232.511 27.6783 221.621 27.6783C210.732 27.6783 201.904 36.4177 201.904 47.1984C201.904 57.979 210.732 66.7184 221.621 66.7184Z" fill="#FFB8B8"/>
<path d="M238.982 34.303C238.982 34.303 244.115 24.5872 232.821 23.7039C232.821 23.7039 223.193 15.057 213.379 22.1231C213.379 22.1231 208.025 22.1231 205.098 28.1202C205.098 28.1202 200.888 26.5394 199.963 30.77C199.963 30.77 196.882 39.6026 199.963 47.552C203.043 55.5014 204.067 56.3847 204.067 56.3847C204.067 56.3847 201.905 46.5199 214.227 45.6367C226.549 44.7534 237.854 37.1113 238.881 46.8272C239.908 56.5431 241.036 52.1541 241.036 52.1541C241.036 52.1541 250.79 38.2778 238.982 34.303Z" fill="#2F2E41"/>
<path d="M264.297 100.417C253.821 112.217 239.078 119.466 223.25 120.599C207.422 121.731 191.78 116.656 179.699 106.47L184.885 92.1425C186.057 89.5978 187.907 87.4169 190.236 85.8338C192.565 84.2506 195.285 83.3248 198.105 83.1557L201.404 82.9552L209.272 76.2376C209.272 76.2376 230.47 75.4882 230.156 75.1294L242.997 82.7758L242.986 82.723L248.034 83.0291C250.854 83.1975 253.574 84.1229 255.903 85.7062C258.232 87.2895 260.082 89.4707 261.253 92.0158L264.297 100.417Z" fill="#F9A826"/>
<path d="M218.823 121.224C206.714 121.224 194.877 117.669 184.808 111.009C174.74 104.349 166.893 94.8828 162.259 83.8074C157.625 72.732 156.412 60.5449 158.775 48.7873C161.137 37.0297 166.968 26.2296 175.531 17.7529C184.093 9.27612 195.002 3.50338 206.879 1.16464C218.755 -1.17409 231.065 0.0262278 242.253 4.61382C253.44 9.2014 263.002 16.9702 269.729 26.9378C276.457 36.9054 280.048 48.6242 280.048 60.6121C280.029 76.6819 273.573 92.0882 262.095 103.451C250.617 114.814 235.055 121.206 218.823 121.224ZM218.823 1.49978C207.014 1.49978 195.469 4.96666 185.65 11.462C175.831 17.9573 168.178 27.1894 163.658 37.9908C159.139 48.7922 157.957 60.6777 160.261 72.1444C162.565 83.611 168.251 94.1439 176.602 102.411C184.952 110.678 195.592 116.308 207.174 118.589C218.757 120.87 230.762 119.699 241.673 115.225C252.583 110.751 261.909 103.174 268.47 93.4532C275.031 83.7322 278.533 72.3035 278.533 60.6121C278.515 44.94 272.218 29.9149 261.024 18.833C249.83 7.75116 234.653 1.51756 218.823 1.49978Z" fill="#3F3D56"/>
<path d="M77.6884 214.961C111.084 214.961 138.156 188.16 138.156 155.099C138.156 122.038 111.084 95.2363 77.6884 95.2363C44.2933 95.2363 17.2212 122.038 17.2212 155.099C17.2212 188.16 44.2933 214.961 77.6884 214.961Z" fill="white"/>
<path d="M49.6624 135.625C52.1627 127.737 57.8484 120.502 65.7117 117.835C73.5754 115.168 85.0899 119.23 91.0016 125.063C101.815 135.733 104.454 172.386 97.0249 183.969C95.5471 183.891 90.448 183.834 88.9523 183.779L86.8365 176.797V183.71C84.4537 183.637 82.0523 183.587 79.6322 183.559C71.5181 183.459 63.7591 180.249 57.9863 174.603C52.2134 168.957 48.8764 161.316 48.6769 153.285C48.4833 145.602 48.6771 138.734 49.6624 135.625Z" fill="#2F2E41"/>
<path d="M76.7916 161.77C86.3089 161.77 94.0243 154.132 94.0243 144.71C94.0243 135.288 86.3089 127.65 76.7916 127.65C67.2742 127.65 59.5588 135.288 59.5588 144.71C59.5588 154.132 67.2742 161.77 76.7916 161.77Z" fill="#9E616A"/>
<path d="M61.9192 129.727L81.761 119.891C85.8176 121.701 89.3112 124.552 91.8796 128.149C94.4481 131.745 95.9977 135.957 96.3679 140.347L96.8624 146.211L88.5536 144.118L87.6434 136.618L86.2324 143.533L82.3979 142.567L82.4344 130.924L78.5976 142.558L64.9026 139.443L61.9192 129.727Z" fill="#2F2E41"/>
<path d="M122.559 194.713C112.083 206.514 97.3402 213.763 81.5126 214.895C65.6849 216.027 50.0423 210.953 37.9614 200.766L43.1478 186.439C44.3199 183.894 46.1695 181.713 48.4983 180.13C50.827 178.547 53.5472 177.621 56.367 177.452L59.6665 177.252L67.5341 170.534C67.5341 170.534 88.7328 169.785 88.4183 169.426L101.259 177.072L101.248 177.019L106.296 177.325C109.116 177.494 111.837 178.419 114.166 180.002C116.495 181.586 118.344 183.767 119.515 186.312L122.559 194.713Z" fill="#F9A826"/>
<path d="M77.6885 215.711C65.5794 215.711 53.7423 212.156 43.6739 205.496C33.6056 198.836 25.7583 189.369 21.1243 178.294C16.4904 167.219 15.2779 155.031 17.6403 143.274C20.0027 131.516 25.8337 120.716 34.3962 112.239C42.9586 103.763 53.8677 97.9899 65.7441 95.6512C77.6205 93.3124 89.9308 94.5128 101.118 99.1004C112.305 103.688 121.867 111.457 128.595 121.424C135.322 131.392 138.913 143.111 138.913 155.099C138.895 171.168 132.438 186.575 120.96 197.938C109.483 209.301 93.9206 215.693 77.6885 215.711ZM77.6885 95.9863C65.879 95.9863 54.3348 99.4532 44.5156 105.949C34.6964 112.444 27.0432 121.676 22.524 132.477C18.0047 143.279 16.8222 155.164 19.1261 166.631C21.43 178.098 27.1168 188.63 35.4674 196.897C43.8179 205.164 54.4571 210.794 66.0397 213.075C77.6222 215.356 89.6278 214.185 100.538 209.711C111.449 205.237 120.774 197.661 127.335 187.94C133.896 178.219 137.398 166.79 137.398 155.099C137.38 139.427 131.084 124.401 119.89 113.32C108.696 102.238 93.519 96.0041 77.6885 95.9863V95.9863Z" fill="#3F3D56"/>
<path d="M486.003 216.15L476.849 200.434C464.99 201.925 442.162 216.915 442.162 216.915L398.006 228.876C396.652 228.448 395.208 228.381 393.819 228.681C392.431 228.982 391.147 229.639 390.096 230.587C389.046 231.535 388.266 232.74 387.836 234.081C387.406 235.422 387.34 236.852 387.645 238.226C387.95 239.6 388.615 240.871 389.574 241.909C390.533 242.948 391.751 243.719 393.106 244.143C394.461 244.567 395.905 244.631 397.293 244.327C398.681 244.024 399.963 243.363 401.011 242.413L457.645 235.1L486.003 216.15Z" fill="#9E616A"/>
<path d="M482.851 218.999L503.346 202.004L506.328 188.325C506.903 185.637 506.708 182.844 505.764 180.26C504.82 177.677 503.165 175.406 500.986 173.705C498.016 171.418 494.28 170.334 490.534 170.67C486.787 171.006 483.309 172.738 480.803 175.516C473.21 183.946 464.67 195.589 467.098 203.182L467.122 203.259L482.851 218.999Z" fill="#3F3D56"/>
<path d="M168.724 278.038H91.7155C89.6516 278.036 87.673 277.223 86.2137 275.778C84.7544 274.334 83.9335 272.375 83.9312 270.331V223.376C83.9335 221.333 84.7544 219.374 86.2137 217.929C87.673 216.485 89.6516 215.672 91.7155 215.67H168.724C170.788 215.672 172.766 216.485 174.226 217.929C175.685 219.374 176.506 221.333 176.508 223.376V270.331C176.506 272.375 175.685 274.333 174.226 275.778C172.766 277.223 170.788 278.036 168.724 278.038Z" fill="#E6E6E6"/>
<path d="M138.127 271.99H97.1288C95.1959 271.988 93.3428 271.227 91.976 269.874C90.6092 268.52 89.8404 266.686 89.8381 264.772V228.935C89.8404 227.021 90.6092 225.187 91.976 223.834C93.3428 222.481 95.1959 221.72 97.1288 221.718H163.311C165.244 221.72 167.097 222.481 168.464 223.834C169.83 225.187 170.599 227.021 170.601 228.935V239.841C170.591 248.364 167.167 256.536 161.079 262.563C154.991 268.59 146.737 271.98 138.127 271.99Z" fill="white"/>
<path d="M156.709 241.341H103.731C103.272 241.341 102.833 241.161 102.509 240.84C102.185 240.52 102.003 240.085 102.003 239.631C102.003 239.177 102.185 238.742 102.509 238.421C102.833 238.101 103.272 237.92 103.731 237.92H156.709C157.167 237.92 157.606 238.101 157.93 238.421C158.254 238.742 158.436 239.177 158.436 239.631C158.436 240.085 158.254 240.52 157.93 240.84C157.606 241.161 157.167 241.341 156.709 241.341Z" fill="#F9A826"/>
<path d="M112.018 248.1H103.731C103.273 248.1 102.833 247.92 102.509 247.599C102.185 247.279 102.003 246.844 102.003 246.39C102.003 245.936 102.185 245.501 102.509 245.18C102.833 244.859 103.273 244.679 103.731 244.679H112.018C112.476 244.679 112.916 244.859 113.24 245.18C113.564 245.501 113.746 245.936 113.746 246.39C113.746 246.844 113.564 247.279 113.24 247.599C112.916 247.92 112.476 248.1 112.018 248.1Z" fill="#F9A826"/>
<path d="M126.695 254.859H103.731C103.273 254.859 102.834 254.678 102.511 254.357C102.188 254.036 102.006 253.602 102.006 253.149C102.006 252.696 102.188 252.261 102.511 251.941C102.834 251.62 103.273 251.439 103.731 251.438H126.695C127.153 251.439 127.591 251.62 127.915 251.941C128.238 252.261 128.42 252.696 128.42 253.149C128.42 253.602 128.238 254.036 127.915 254.357C127.591 254.678 127.153 254.859 126.695 254.859Z" fill="#F9A826"/>
<path d="M81.2439 230.862C90.2408 230.862 97.5342 223.641 97.5342 214.734C97.5342 205.827 90.2408 198.607 81.2439 198.607C72.247 198.607 64.9536 205.827 64.9536 214.734C64.9536 223.641 72.247 230.862 81.2439 230.862Z" fill="#3F3D56"/>
<path d="M368.696 65.0682H291.688C289.624 65.0659 287.645 64.2532 286.186 62.8084C284.727 61.3637 283.906 59.4049 283.904 57.3617V10.4062C283.906 8.36306 284.727 6.40423 286.186 4.95948C287.645 3.51474 289.624 2.70205 291.688 2.69974H368.696C370.76 2.70205 372.739 3.51472 374.198 4.95947C375.657 6.40422 376.478 8.36305 376.481 10.4062V57.3617C376.478 59.4049 375.657 61.3637 374.198 62.8084C372.739 64.2532 370.76 65.0659 368.696 65.0682Z" fill="#E6E6E6"/>
<path d="M338.099 59.02H297.101C295.168 59.0179 293.315 58.2568 291.948 56.9038C290.581 55.5507 289.813 53.7162 289.81 51.8026V15.9652C289.813 14.0516 290.581 12.2171 291.948 10.8641C293.315 9.51101 295.168 8.74994 297.101 8.74783H363.283C365.216 8.74996 367.069 9.51104 368.436 10.8641C369.802 12.2172 370.571 14.0517 370.573 15.9652V26.8712C370.564 35.3947 367.139 43.5663 361.051 49.5933C354.963 55.6202 346.709 59.0104 338.099 59.02Z" fill="white"/>
<path d="M356.681 28.3716H303.703C303.245 28.3716 302.805 28.1914 302.481 27.8706C302.157 27.5498 301.975 27.1147 301.975 26.6611C301.975 26.2074 302.157 25.7723 302.481 25.4516C302.805 25.1308 303.245 24.9506 303.703 24.9506H356.681C357.139 24.9506 357.578 25.1308 357.903 25.4516C358.227 25.7723 358.409 26.2074 358.409 26.6611C358.409 27.1147 358.227 27.5498 357.903 27.8706C357.578 28.1914 357.139 28.3716 356.681 28.3716Z" fill="#F9A826"/>
<path d="M311.99 35.1306H303.703C303.245 35.1306 302.805 34.9504 302.481 34.6296C302.157 34.3088 301.975 33.8737 301.975 33.42C301.975 32.9664 302.157 32.5313 302.481 32.2105C302.805 31.8897 303.245 31.7095 303.703 31.7095H311.99C312.448 31.7095 312.888 31.8897 313.212 32.2105C313.536 32.5313 313.718 32.9664 313.718 33.42C313.718 33.8737 313.536 34.3088 313.212 34.6296C312.888 34.9504 312.448 35.1306 311.99 35.1306Z" fill="#F9A826"/>
<path d="M326.668 41.8897H303.703C303.245 41.8887 302.807 41.7081 302.484 41.3874C302.16 41.0667 301.979 40.6321 301.979 40.1791C301.979 39.726 302.16 39.2915 302.484 38.9708C302.807 38.6501 303.245 38.4695 303.703 38.4685H326.668C327.126 38.4685 327.565 38.6487 327.889 38.9695C328.213 39.2903 328.396 39.7254 328.396 40.1791C328.396 40.6328 328.213 41.0679 327.889 41.3887C327.565 41.7095 327.126 41.8897 326.668 41.8897Z" fill="#F9A826"/>
<path d="M281.216 74.1339C290.213 74.1339 297.506 66.9135 297.506 58.0066C297.506 49.0997 290.213 41.8792 281.216 41.8792C272.219 41.8792 264.926 49.0997 264.926 58.0066C264.926 66.9135 272.219 74.1339 281.216 74.1339Z" fill="#3F3D56"/>
</g>
<defs>
<clipPath id="clip0_18_518">
<rect width="611" height="524" fill="white"/>
</clipPath>
</defs>
</svg>
